<mxfile host="app.diagrams.net" modified="2020-07-09T11:48:35.301Z" agent="5.0 (Windows NT 10.0; WOW64) AppleWebKit/537.36 (KHTML, like Gecko) Chrome/83.0.4103.101 YaBrowser/20.7.0.899 Yowser/2.5 Yptp/1.23 Safari/537.36" etag="ZO95qwmZdkTPepUnL0FR" version="13.4.1" type="github">
  <diagram id="GVHPBDPO9n1g_-JGYMfk" name="Page-1">
    <mxGraphModel dx="1038" dy="548" grid="1" gridSize="10" guides="1" tooltips="1" connect="1" arrows="1" fold="1" page="1" pageScale="1" pageWidth="827" pageHeight="1169" math="0" shadow="0">
      <root>
        <mxCell id="0" />
        <mxCell id="1" parent="0" />
        <mxCell id="Hb7h8Dr88QdeFPvrgwl7-7" style="edgeStyle=orthogonalEdgeStyle;rounded=0;orthogonalLoop=1;jettySize=auto;html=1;exitX=0.5;exitY=1;exitDx=0;exitDy=0;entryX=0.5;entryY=0;entryDx=0;entryDy=0;" parent="1" source="Hb7h8Dr88QdeFPvrgwl7-1" target="Hb7h8Dr88QdeFPvrgwl7-6" edge="1">
          <mxGeometry relative="1" as="geometry">
            <Array as="points">
              <mxPoint x="100" y="220" />
              <mxPoint x="300" y="220" />
            </Array>
          </mxGeometry>
        </mxCell>
        <mxCell id="Hb7h8Dr88QdeFPvrgwl7-11" style="edgeStyle=orthogonalEdgeStyle;rounded=0;orthogonalLoop=1;jettySize=auto;html=1;exitX=0.5;exitY=1;exitDx=0;exitDy=0;" parent="1" source="Hb7h8Dr88QdeFPvrgwl7-1" target="Hb7h8Dr88QdeFPvrgwl7-8" edge="1">
          <mxGeometry relative="1" as="geometry">
            <Array as="points">
              <mxPoint x="100" y="320" />
              <mxPoint x="300" y="320" />
            </Array>
          </mxGeometry>
        </mxCell>
        <mxCell id="Hb7h8Dr88QdeFPvrgwl7-13" style="edgeStyle=orthogonalEdgeStyle;rounded=0;orthogonalLoop=1;jettySize=auto;html=1;exitX=0.5;exitY=1;exitDx=0;exitDy=0;entryX=0.5;entryY=0;entryDx=0;entryDy=0;" parent="1" source="Hb7h8Dr88QdeFPvrgwl7-1" target="Hb7h8Dr88QdeFPvrgwl7-9" edge="1">
          <mxGeometry relative="1" as="geometry">
            <Array as="points">
              <mxPoint x="100" y="420" />
              <mxPoint x="300" y="420" />
            </Array>
          </mxGeometry>
        </mxCell>
        <mxCell id="Hb7h8Dr88QdeFPvrgwl7-14" style="edgeStyle=orthogonalEdgeStyle;rounded=0;orthogonalLoop=1;jettySize=auto;html=1;exitX=0.5;exitY=1;exitDx=0;exitDy=0;entryX=0.5;entryY=0;entryDx=0;entryDy=0;" parent="1" source="Hb7h8Dr88QdeFPvrgwl7-1" target="Hb7h8Dr88QdeFPvrgwl7-10" edge="1">
          <mxGeometry relative="1" as="geometry">
            <Array as="points">
              <mxPoint x="100" y="520" />
              <mxPoint x="300" y="520" />
            </Array>
          </mxGeometry>
        </mxCell>
        <mxCell id="Hb7h8Dr88QdeFPvrgwl7-16" style="edgeStyle=orthogonalEdgeStyle;rounded=0;orthogonalLoop=1;jettySize=auto;html=1;exitX=0.5;exitY=1;exitDx=0;exitDy=0;entryX=0.5;entryY=0;entryDx=0;entryDy=0;" parent="1" source="Hb7h8Dr88QdeFPvrgwl7-1" target="Hb7h8Dr88QdeFPvrgwl7-15" edge="1">
          <mxGeometry relative="1" as="geometry">
            <Array as="points">
              <mxPoint x="100" y="620" />
              <mxPoint x="300" y="620" />
            </Array>
          </mxGeometry>
        </mxCell>
        <mxCell id="Hb7h8Dr88QdeFPvrgwl7-19" style="edgeStyle=orthogonalEdgeStyle;rounded=0;orthogonalLoop=1;jettySize=auto;html=1;exitX=0.5;exitY=1;exitDx=0;exitDy=0;entryX=0.5;entryY=0;entryDx=0;entryDy=0;" parent="1" source="Hb7h8Dr88QdeFPvrgwl7-1" target="Hb7h8Dr88QdeFPvrgwl7-17" edge="1">
          <mxGeometry relative="1" as="geometry">
            <Array as="points">
              <mxPoint x="100" y="720" />
              <mxPoint x="300" y="720" />
            </Array>
          </mxGeometry>
        </mxCell>
        <mxCell id="Hb7h8Dr88QdeFPvrgwl7-21" style="edgeStyle=orthogonalEdgeStyle;rounded=0;orthogonalLoop=1;jettySize=auto;html=1;exitX=0.5;exitY=1;exitDx=0;exitDy=0;entryX=0.5;entryY=0;entryDx=0;entryDy=0;" parent="1" source="Hb7h8Dr88QdeFPvrgwl7-1" target="Hb7h8Dr88QdeFPvrgwl7-20" edge="1">
          <mxGeometry relative="1" as="geometry">
            <Array as="points">
              <mxPoint x="100" y="820" />
              <mxPoint x="300" y="820" />
            </Array>
          </mxGeometry>
        </mxCell>
        <mxCell id="Hb7h8Dr88QdeFPvrgwl7-23" style="edgeStyle=orthogonalEdgeStyle;rounded=0;orthogonalLoop=1;jettySize=auto;html=1;exitX=0.5;exitY=1;exitDx=0;exitDy=0;" parent="1" source="Hb7h8Dr88QdeFPvrgwl7-1" target="Hb7h8Dr88QdeFPvrgwl7-22" edge="1">
          <mxGeometry relative="1" as="geometry">
            <Array as="points">
              <mxPoint x="100" y="920" />
              <mxPoint x="300" y="920" />
            </Array>
          </mxGeometry>
        </mxCell>
        <mxCell id="Hb7h8Dr88QdeFPvrgwl7-25" style="edgeStyle=orthogonalEdgeStyle;rounded=0;orthogonalLoop=1;jettySize=auto;html=1;exitX=0.5;exitY=1;exitDx=0;exitDy=0;entryX=0.5;entryY=0;entryDx=0;entryDy=0;" parent="1" source="Hb7h8Dr88QdeFPvrgwl7-1" target="Hb7h8Dr88QdeFPvrgwl7-2" edge="1">
          <mxGeometry relative="1" as="geometry" />
        </mxCell>
        <mxCell id="Hb7h8Dr88QdeFPvrgwl7-27" style="edgeStyle=orthogonalEdgeStyle;rounded=0;orthogonalLoop=1;jettySize=auto;html=1;exitX=0.5;exitY=1;exitDx=0;exitDy=0;entryX=0.5;entryY=0;entryDx=0;entryDy=0;" parent="1" source="Hb7h8Dr88QdeFPvrgwl7-1" target="Hb7h8Dr88QdeFPvrgwl7-26" edge="1">
          <mxGeometry relative="1" as="geometry">
            <Array as="points">
              <mxPoint x="100" y="1020" />
              <mxPoint x="300" y="1020" />
            </Array>
          </mxGeometry>
        </mxCell>
        <mxCell id="Hb7h8Dr88QdeFPvrgwl7-29" style="edgeStyle=orthogonalEdgeStyle;rounded=0;orthogonalLoop=1;jettySize=auto;html=1;exitX=0.5;exitY=1;exitDx=0;exitDy=0;entryX=0.5;entryY=0;entryDx=0;entryDy=0;" parent="1" source="Hb7h8Dr88QdeFPvrgwl7-1" target="Hb7h8Dr88QdeFPvrgwl7-28" edge="1">
          <mxGeometry relative="1" as="geometry">
            <Array as="points">
              <mxPoint x="100" y="1120" />
              <mxPoint x="300" y="1120" />
            </Array>
          </mxGeometry>
        </mxCell>
        <mxCell id="Hb7h8Dr88QdeFPvrgwl7-1" value="loader2/" style="whiteSpace=wrap;html=1;rounded=1;" parent="1" vertex="1">
          <mxGeometry x="40" y="40" width="120" height="60" as="geometry" />
        </mxCell>
        <mxCell id="KmtNDAeKmbRUr9qQTe-3-3" style="edgeStyle=orthogonalEdgeStyle;rounded=0;orthogonalLoop=1;jettySize=auto;html=1;exitX=1;exitY=0.5;exitDx=0;exitDy=0;entryX=0.5;entryY=0;entryDx=0;entryDy=0;" edge="1" parent="1" source="Hb7h8Dr88QdeFPvrgwl7-2" target="KmtNDAeKmbRUr9qQTe-3-1">
          <mxGeometry relative="1" as="geometry">
            <Array as="points">
              <mxPoint x="380" y="170" />
              <mxPoint x="380" y="220" />
              <mxPoint x="500" y="220" />
            </Array>
          </mxGeometry>
        </mxCell>
        <mxCell id="KmtNDAeKmbRUr9qQTe-3-5" style="edgeStyle=orthogonalEdgeStyle;rounded=0;orthogonalLoop=1;jettySize=auto;html=1;exitX=1;exitY=0.5;exitDx=0;exitDy=0;entryX=0.5;entryY=0;entryDx=0;entryDy=0;" edge="1" parent="1" source="Hb7h8Dr88QdeFPvrgwl7-2" target="KmtNDAeKmbRUr9qQTe-3-2">
          <mxGeometry relative="1" as="geometry">
            <Array as="points">
              <mxPoint x="380" y="170" />
              <mxPoint x="380" y="320" />
              <mxPoint x="500" y="320" />
            </Array>
          </mxGeometry>
        </mxCell>
        <mxCell id="Hb7h8Dr88QdeFPvrgwl7-2" value="loaderold/instructions/workplaceinstall/" style="whiteSpace=wrap;html=1;rounded=1;" parent="1" vertex="1">
          <mxGeometry x="240" y="140" width="120" height="60" as="geometry" />
        </mxCell>
        <mxCell id="Hb7h8Dr88QdeFPvrgwl7-6" value="loaderold/instructions/workplacetakeback/" style="whiteSpace=wrap;html=1;rounded=1;" parent="1" vertex="1">
          <mxGeometry x="240" y="240" width="120" height="60" as="geometry" />
        </mxCell>
        <mxCell id="Hb7h8Dr88QdeFPvrgwl7-8" value="loaderold/instructions/workplacecheck" style="whiteSpace=wrap;html=1;rounded=1;" parent="1" vertex="1">
          <mxGeometry x="240" y="340" width="120" height="60" as="geometry" />
        </mxCell>
        <mxCell id="Hb7h8Dr88QdeFPvrgwl7-9" value="loaderold/instructions/additionalequip" style="whiteSpace=wrap;html=1;rounded=1;" parent="1" vertex="1">
          <mxGeometry x="240" y="440" width="120" height="60" as="geometry" />
        </mxCell>
        <mxCell id="Hb7h8Dr88QdeFPvrgwl7-10" value="loaderold/instructions/cables" style="whiteSpace=wrap;html=1;rounded=1;" parent="1" vertex="1">
          <mxGeometry x="240" y="540" width="120" height="60" as="geometry" />
        </mxCell>
        <mxCell id="Hb7h8Dr88QdeFPvrgwl7-15" value="loaderold/instructions/printers" style="whiteSpace=wrap;html=1;rounded=1;" parent="1" vertex="1">
          <mxGeometry x="240" y="640" width="120" height="60" as="geometry" />
        </mxCell>
        <mxCell id="Hb7h8Dr88QdeFPvrgwl7-17" value="1.5line/loader/vendomat/" style="whiteSpace=wrap;html=1;rounded=1;" parent="1" vertex="1">
          <mxGeometry x="240" y="740" width="120" height="60" as="geometry" />
        </mxCell>
        <mxCell id="Hb7h8Dr88QdeFPvrgwl7-35" style="edgeStyle=orthogonalEdgeStyle;rounded=0;orthogonalLoop=1;jettySize=auto;html=1;exitX=1;exitY=0.5;exitDx=0;exitDy=0;entryX=0.5;entryY=0;entryDx=0;entryDy=0;" parent="1" source="Hb7h8Dr88QdeFPvrgwl7-20" target="Hb7h8Dr88QdeFPvrgwl7-34" edge="1">
          <mxGeometry relative="1" as="geometry">
            <Array as="points">
              <mxPoint x="380" y="870" />
              <mxPoint x="380" y="920" />
              <mxPoint x="620" y="920" />
            </Array>
          </mxGeometry>
        </mxCell>
        <mxCell id="Hb7h8Dr88QdeFPvrgwl7-38" style="edgeStyle=orthogonalEdgeStyle;rounded=0;orthogonalLoop=1;jettySize=auto;html=1;exitX=1;exitY=0.5;exitDx=0;exitDy=0;entryX=0.5;entryY=0;entryDx=0;entryDy=0;" parent="1" source="Hb7h8Dr88QdeFPvrgwl7-20" target="Hb7h8Dr88QdeFPvrgwl7-36" edge="1">
          <mxGeometry relative="1" as="geometry">
            <Array as="points">
              <mxPoint x="380" y="870" />
              <mxPoint x="380" y="920" />
              <mxPoint x="540" y="920" />
              <mxPoint x="540" y="1020" />
              <mxPoint x="620" y="1020" />
            </Array>
          </mxGeometry>
        </mxCell>
        <mxCell id="Hb7h8Dr88QdeFPvrgwl7-39" style="edgeStyle=orthogonalEdgeStyle;rounded=0;orthogonalLoop=1;jettySize=auto;html=1;exitX=1;exitY=0.5;exitDx=0;exitDy=0;entryX=0.5;entryY=0;entryDx=0;entryDy=0;" parent="1" source="Hb7h8Dr88QdeFPvrgwl7-20" target="Hb7h8Dr88QdeFPvrgwl7-37" edge="1">
          <mxGeometry relative="1" as="geometry">
            <Array as="points">
              <mxPoint x="380" y="870" />
              <mxPoint x="380" y="920" />
              <mxPoint x="540" y="920" />
              <mxPoint x="540" y="1120" />
              <mxPoint x="620" y="1120" />
            </Array>
          </mxGeometry>
        </mxCell>
        <mxCell id="Hb7h8Dr88QdeFPvrgwl7-41" style="edgeStyle=orthogonalEdgeStyle;rounded=0;orthogonalLoop=1;jettySize=auto;html=1;exitX=1;exitY=0.5;exitDx=0;exitDy=0;entryX=0.5;entryY=0;entryDx=0;entryDy=0;" parent="1" source="Hb7h8Dr88QdeFPvrgwl7-20" target="Hb7h8Dr88QdeFPvrgwl7-40" edge="1">
          <mxGeometry relative="1" as="geometry">
            <Array as="points">
              <mxPoint x="380" y="870" />
              <mxPoint x="380" y="920" />
              <mxPoint x="540" y="920" />
              <mxPoint x="540" y="1220" />
              <mxPoint x="620" y="1220" />
            </Array>
          </mxGeometry>
        </mxCell>
        <mxCell id="Hb7h8Dr88QdeFPvrgwl7-43" style="edgeStyle=orthogonalEdgeStyle;rounded=0;orthogonalLoop=1;jettySize=auto;html=1;exitX=1;exitY=0.5;exitDx=0;exitDy=0;entryX=0.5;entryY=0;entryDx=0;entryDy=0;" parent="1" source="Hb7h8Dr88QdeFPvrgwl7-20" target="Hb7h8Dr88QdeFPvrgwl7-42" edge="1">
          <mxGeometry relative="1" as="geometry">
            <Array as="points">
              <mxPoint x="380" y="870" />
              <mxPoint x="380" y="920" />
              <mxPoint x="540" y="920" />
              <mxPoint x="540" y="1320" />
              <mxPoint x="620" y="1320" />
            </Array>
          </mxGeometry>
        </mxCell>
        <mxCell id="Hb7h8Dr88QdeFPvrgwl7-46" style="edgeStyle=orthogonalEdgeStyle;rounded=0;orthogonalLoop=1;jettySize=auto;html=1;exitX=1;exitY=0.5;exitDx=0;exitDy=0;entryX=0.5;entryY=0;entryDx=0;entryDy=0;" parent="1" source="Hb7h8Dr88QdeFPvrgwl7-20" target="Hb7h8Dr88QdeFPvrgwl7-45" edge="1">
          <mxGeometry relative="1" as="geometry">
            <Array as="points">
              <mxPoint x="380" y="870" />
              <mxPoint x="380" y="920" />
              <mxPoint x="540" y="920" />
              <mxPoint x="540" y="1420" />
              <mxPoint x="620" y="1420" />
            </Array>
          </mxGeometry>
        </mxCell>
        <mxCell id="Hb7h8Dr88QdeFPvrgwl7-48" style="edgeStyle=orthogonalEdgeStyle;rounded=0;orthogonalLoop=1;jettySize=auto;html=1;exitX=1;exitY=0.5;exitDx=0;exitDy=0;entryX=0.5;entryY=0;entryDx=0;entryDy=0;" parent="1" source="Hb7h8Dr88QdeFPvrgwl7-20" target="Hb7h8Dr88QdeFPvrgwl7-47" edge="1">
          <mxGeometry relative="1" as="geometry">
            <Array as="points">
              <mxPoint x="380" y="870" />
              <mxPoint x="380" y="920" />
              <mxPoint x="540" y="920" />
              <mxPoint x="540" y="1520" />
              <mxPoint x="620" y="1520" />
            </Array>
          </mxGeometry>
        </mxCell>
        <mxCell id="Hb7h8Dr88QdeFPvrgwl7-20" value="users/korolkevich/Servis-podderzhka-tochek-pitanija-infomracija-dlja-texnikov/" style="whiteSpace=wrap;html=1;rounded=1;" parent="1" vertex="1">
          <mxGeometry x="240" y="840" width="120" height="60" as="geometry" />
        </mxCell>
        <mxCell id="Hb7h8Dr88QdeFPvrgwl7-22" value="loader2/wifiap/" style="whiteSpace=wrap;html=1;rounded=1;" parent="1" vertex="1">
          <mxGeometry x="240" y="940" width="120" height="60" as="geometry" />
        </mxCell>
        <mxCell id="Hb7h8Dr88QdeFPvrgwl7-31" style="edgeStyle=orthogonalEdgeStyle;rounded=0;orthogonalLoop=1;jettySize=auto;html=1;exitX=1;exitY=0.5;exitDx=0;exitDy=0;entryX=0.5;entryY=0;entryDx=0;entryDy=0;" parent="1" source="Hb7h8Dr88QdeFPvrgwl7-26" target="Hb7h8Dr88QdeFPvrgwl7-30" edge="1">
          <mxGeometry relative="1" as="geometry">
            <Array as="points">
              <mxPoint x="380" y="1070" />
              <mxPoint x="380" y="1120" />
              <mxPoint x="460" y="1120" />
            </Array>
          </mxGeometry>
        </mxCell>
        <mxCell id="Hb7h8Dr88QdeFPvrgwl7-33" style="edgeStyle=orthogonalEdgeStyle;rounded=0;orthogonalLoop=1;jettySize=auto;html=1;exitX=1;exitY=0.5;exitDx=0;exitDy=0;entryX=0.5;entryY=0;entryDx=0;entryDy=0;" parent="1" source="Hb7h8Dr88QdeFPvrgwl7-26" target="Hb7h8Dr88QdeFPvrgwl7-32" edge="1">
          <mxGeometry relative="1" as="geometry">
            <Array as="points">
              <mxPoint x="380" y="1070" />
              <mxPoint x="380" y="1220" />
              <mxPoint x="460" y="1220" />
            </Array>
          </mxGeometry>
        </mxCell>
        <mxCell id="Hb7h8Dr88QdeFPvrgwl7-26" value="loader/instructions/vcshowto/" style="whiteSpace=wrap;html=1;rounded=1;" parent="1" vertex="1">
          <mxGeometry x="240" y="1040" width="120" height="60" as="geometry" />
        </mxCell>
        <UserObject label="https://wiki.yandex-team.ru/hd/ext/loader2/HDEXTtoLOGIC/" link="https://wiki.yandex-team.ru/hd/ext/loader2/HDEXTtoLOGIC/" id="Hb7h8Dr88QdeFPvrgwl7-28">
          <mxCell style="whiteSpace=wrap;html=1;rounded=1;" parent="1" vertex="1">
            <mxGeometry x="240" y="1140" width="120" height="60" as="geometry" />
          </mxCell>
        </UserObject>
        <mxCell id="Hb7h8Dr88QdeFPvrgwl7-30" value="vcs/VCS_Guidelines/" style="whiteSpace=wrap;html=1;rounded=1;" parent="1" vertex="1">
          <mxGeometry x="400" y="1140" width="120" height="60" as="geometry" />
        </mxCell>
        <mxCell id="Hb7h8Dr88QdeFPvrgwl7-32" value="vcs/MeetingRoomsMaintenance/" style="whiteSpace=wrap;html=1;rounded=1;" parent="1" vertex="1">
          <mxGeometry x="400" y="1240" width="120" height="60" as="geometry" />
        </mxCell>
        <UserObject label="users/korolkevich/Servis-podderzhka-tochek-pitanija-infomracija-dlja-texnikov/.files/instrukcijapoustanovkekioska20190620.pdf" link="https://wiki.yandex-team.ru/users/korolkevich/Servis-podderzhka-tochek-pitanija-infomracija-dlja-texnikov/.files/instrukcijapoustanovkekioska20190620.pdf" id="Hb7h8Dr88QdeFPvrgwl7-34">
          <mxCell style="whiteSpace=wrap;html=1;rounded=1;" parent="1" vertex="1">
            <mxGeometry x="560" y="940" width="120" height="60" as="geometry" />
          </mxCell>
        </UserObject>
        <UserObject label="https://st.yandex-team.ru/HDWINEP-114/attachments/9927301?inline=false" link="https://st.yandex-team.ru/HDWINEP-114/attachments/9927301?inline=false" id="Hb7h8Dr88QdeFPvrgwl7-36">
          <mxCell style="whiteSpace=wrap;html=1;fillColor=#f8cecc;strokeColor=#b85450;rounded=1;" parent="1" vertex="1">
            <mxGeometry x="560" y="1040" width="120" height="60" as="geometry" />
          </mxCell>
        </UserObject>
        <UserObject label="https://st.yandex-team.ru/HDWINEP-114/attachments/16179155?" link="https://st.yandex-team.ru/HDWINEP-114/attachments/16179155?" id="Hb7h8Dr88QdeFPvrgwl7-37">
          <mxCell style="whiteSpace=wrap;html=1;fillColor=#f8cecc;strokeColor=#b85450;rounded=1;" parent="1" vertex="1">
            <mxGeometry x="560" y="1140" width="120" height="60" as="geometry" />
          </mxCell>
        </UserObject>
        <UserObject label="https://wiki.yandex-team.ru/hd/cat/badge/piponewpoint/" link="https://wiki.yandex-team.ru/hd/cat/badge/piponewpoint/" id="Hb7h8Dr88QdeFPvrgwl7-40">
          <mxCell style="whiteSpace=wrap;html=1;fillColor=#f8cecc;strokeColor=#b85450;rounded=1;" parent="1" vertex="1">
            <mxGeometry x="560" y="1240" width="120" height="60" as="geometry" />
          </mxCell>
        </UserObject>
        <mxCell id="Hb7h8Dr88QdeFPvrgwl7-42" value="users/maxim-shanti/Opisanie-reshenie-incidentov-Ja.Bejjdzh/" style="whiteSpace=wrap;html=1;rounded=1;" parent="1" vertex="1">
          <mxGeometry x="560" y="1340" width="120" height="60" as="geometry" />
        </mxCell>
        <UserObject label="https://wiki.yandex-team.ru/users/korolkevich/Servis-podderzhka-tochek-pitanija-infomracija-dlja-texnikov/.files/aktpriema-peredachi.docx/" link="https://wiki.yandex-team.ru/users/korolkevich/Servis-podderzhka-tochek-pitanija-infomracija-dlja-texnikov/.files/aktpriema-peredachi.docx/" id="Hb7h8Dr88QdeFPvrgwl7-45">
          <mxCell style="whiteSpace=wrap;html=1;rounded=1;" parent="1" vertex="1">
            <mxGeometry x="560" y="1440" width="120" height="60" as="geometry" />
          </mxCell>
        </UserObject>
        <mxCell id="Hb7h8Dr88QdeFPvrgwl7-47" value="https://yandexteam.sharepoint.com/:x:/r/sites/Helpdesk804/_layouts/15/Doc.aspx?sourcedoc=%7B706FD089-C1A2-46B5-ABA8-E2035C203E27%7D&amp;file=Точки%20питания_адреса.xlsx&amp;action=default&amp;mobileredirect=true&amp;cid=cd28f1b2-9355-4516-83f5-5014d8a81f18%5C" style="rounded=1;whiteSpace=wrap;html=1;fillColor=#f8cecc;strokeColor=#b85450;" parent="1" vertex="1">
          <mxGeometry x="560" y="1540" width="120" height="60" as="geometry" />
        </mxCell>
        <mxCell id="KmtNDAeKmbRUr9qQTe-3-1" value="" style="rounded=1;whiteSpace=wrap;html=1;" vertex="1" parent="1">
          <mxGeometry x="440" y="240" width="120" height="60" as="geometry" />
        </mxCell>
        <mxCell id="KmtNDAeKmbRUr9qQTe-3-2" value="" style="rounded=1;whiteSpace=wrap;html=1;" vertex="1" parent="1">
          <mxGeometry x="440" y="340" width="120" height="60" as="geometry" />
        </mxCell>
      </root>
    </mxGraphModel>
  </diagram>
</mxfile>
